<svg width="80" height="80" viewBox="0 0 80 80" fill="none" xmlns="http://www.w3.org/2000/svg">
  <!-- Background circle -->
  <circle cx="40" cy="40" r="40" fill="#F3F4F6"/>
  
  <!-- Face -->
  <circle cx="40" cy="35" r="22" fill="#FBBF24"/>
  
  <!-- Hair -->
  <path d="M18 35 Q18 15 40 15 Q62 15 62 35 Q60 25 55 22 Q50 20 45 22 Q40 18 35 22 Q30 20 25 22 Q20 25 18 35" fill="#92400E"/>
  
  <!-- Hair details -->
  <path d="M22 30 Q25 25 30 28 Q35 25 40 28 Q45 25 50 28 Q55 25 58 30" stroke="#78350F" stroke-width="1" fill="none"/>
  
  <!-- Eyes -->
  <ellipse cx="33" cy="32" rx="3" ry="2" fill="#FFFFFF"/>
  <ellipse cx="47" cy="32" rx="3" ry="2" fill="#FFFFFF"/>
  <circle cx="33" cy="32" r="1.5" fill="#1F2937"/>
  <circle cx="47" cy="32" r="1.5" fill="#1F2937"/>
  <circle cx="33.5" cy="31.5" r="0.5" fill="#FFFFFF"/>
  <circle cx="47.5" cy="31.5" r="0.5" fill="#FFFFFF"/>
  
  <!-- Eyebrows -->
  <path d="M29 28 Q33 26 37 28" stroke="#92400E" stroke-width="1.5" fill="none"/>
  <path d="M43 28 Q47 26 51 28" stroke="#92400E" stroke-width="1.5" fill="none"/>
  
  <!-- Nose -->
  <ellipse cx="40" cy="36" rx="1" ry="2" fill="#F59E0B"/>
  
  <!-- Mouth -->
  <path d="M36 42 Q40 45 44 42" stroke="#DC2626" stroke-width="2" fill="none"/>
  
  <!-- Cheeks -->
  <circle cx="28" cy="38" r="3" fill="#F87171" opacity="0.3"/>
  <circle cx="52" cy="38" r="3" fill="#F87171" opacity="0.3"/>
  
  <!-- Neck -->
  <rect x="35" y="55" width="10" height="8" fill="#FBBF24"/>
  
  <!-- Clothing -->
  <path d="M25 65 Q40 60 55 65 L55 80 L25 80 Z" fill="#06B6D4"/>
  
  <!-- Clothing details -->
  <circle cx="40" cy="70" r="2" fill="#FFFFFF"/>
  <path d="M30 68 Q35 66 40 68 Q45 66 50 68" stroke="#0891B2" stroke-width="1" fill="none"/>
  
  <!-- Earrings -->
  <circle cx="25" cy="38" r="1.5" fill="#F59E0B"/>
  <circle cx="55" cy="38" r="1.5" fill="#F59E0B"/>
</svg>