<svg width="80" height="80" viewBox="0 0 80 80" fill="none" xmlns="http://www.w3.org/2000/svg">
  <!-- Background circle -->
  <circle cx="40" cy="40" r="40" fill="#F3F4F6"/>
  
  <!-- Face -->
  <circle cx="40" cy="35" r="22" fill="#D97706"/>
  
  <!-- Hair (short, professional) -->
  <path d="M18 35 Q18 18 40 18 Q62 18 62 35 Q60 28 55 25 Q50 23 45 25 Q40 22 35 25 Q30 23 25 25 Q20 28 18 35" fill="#374151"/>
  
  <!-- Hair details -->
  <path d="M22 32 Q25 28 30 30 Q35 28 40 30 Q45 28 50 30 Q55 28 58 32" stroke="#1F2937" stroke-width="1" fill="none"/>
  
  <!-- Receding hairline -->
  <path d="M25 30 Q30 25 35 28" stroke="#374151" stroke-width="2" fill="none"/>
  <path d="M45 28 Q50 25 55 30" stroke="#374151" stroke-width="2" fill="none"/>
  
  <!-- Eyes -->
  <ellipse cx="33" cy="32" rx="3" ry="2" fill="#FFFFFF"/>
  <ellipse cx="47" cy="32" rx="3" ry="2" fill="#FFFFFF"/>
  <circle cx="33" cy="32" r="1.5" fill="#1F2937"/>
  <circle cx="47" cy="32" r="1.5" fill="#1F2937"/>
  <circle cx="33.5" cy="31.5" r="0.5" fill="#FFFFFF"/>
  <circle cx="47.5" cy="31.5" r="0.5" fill="#FFFFFF"/>
  
  <!-- Glasses -->
  <circle cx="33" cy="32" r="6" fill="none" stroke="#374151" stroke-width="1.5"/>
  <circle cx="47" cy="32" r="6" fill="none" stroke="#374151" stroke-width="1.5"/>
  <line x1="39" y1="32" x2="41" y2="32" stroke="#374151" stroke-width="1.5"/>
  <path d="M27 30 Q25 28 23 30" stroke="#374151" stroke-width="1.5" fill="none"/>
  <path d="M53 30 Q55 28 57 30" stroke="#374151" stroke-width="1.5" fill="none"/>
  
  <!-- Eyebrows -->
  <path d="M29 26 Q33 24 37 26" stroke="#374151" stroke-width="1.5" fill="none"/>
  <path d="M43 26 Q47 24 51 26" stroke="#374151" stroke-width="1.5" fill="none"/>
  
  <!-- Nose -->
  <ellipse cx="40" cy="36" rx="1.2" ry="2.5" fill="#C45508"/>
  
  <!-- Mustache -->
  <path d="M35 40 Q40 42 45 40" stroke="#374151" stroke-width="2" fill="none"/>
  
  <!-- Mouth -->
  <path d="M37 44 Q40 46 43 44" stroke="#DC2626" stroke-width="2" fill="none"/>
  
  <!-- Neck -->
  <rect x="35" y="55" width="10" height="8" fill="#D97706"/>
  
  <!-- White coat -->
  <path d="M25 65 Q40 60 55 65 L55 80 L25 80 Z" fill="#FFFFFF"/>
  
  <!-- Coat lapels -->
  <path d="M30 65 Q35 62 40 65" stroke="#E5E7EB" stroke-width="1" fill="none"/>
  <path d="M40 65 Q45 62 50 65" stroke="#E5E7EB" stroke-width="1" fill="none"/>
  
  <!-- Stethoscope -->
  <path d="M35 70 Q30 68 28 72 Q26 76 30 78 Q34 76 32 72" stroke="#1E3A8A" stroke-width="2" fill="none"/>
  <circle cx="30" cy="75" r="2" fill="#1E3A8A"/>
  
  <!-- Medical badge -->
  <rect x="45" y="68" width="8" height="6" rx="1" fill="#1E3A8A"/>
  <text x="49" y="72" text-anchor="middle" fill="#FFFFFF" font-family="Arial" font-size="4">MD</text>
  
  <!-- Professional appearance -->
  <path d="M25 62 Q40 58 55 62" stroke="#E5E7EB" stroke-width="1" fill="none"/>
</svg>